{
	"patcher" : 	{
		"fileversion" : 1,
		"appversion" : 		{
			"major" : 7,
			"minor" : 2,
			"revision" : 4,
			"architecture" : "x64",
			"modernui" : 1
		}
,
		"rect" : [ 985.0, 360.0, 730.0, 466.0 ],
		"bglocked" : 0,
		"openinpresentation" : 0,
		"default_fontsize" : 12.0,
		"default_fontface" : 0,
		"default_fontname" : "Arial",
		"gridonopen" : 1,
		"gridsize" : [ 15.0, 15.0 ],
		"gridsnaponopen" : 1,
		"objectsnaponopen" : 1,
		"statusbarvisible" : 2,
		"toolbarvisible" : 1,
		"lefttoolbarpinned" : 0,
		"toptoolbarpinned" : 0,
		"righttoolbarpinned" : 0,
		"bottomtoolbarpinned" : 0,
		"toolbars_unpinned_last_save" : 0,
		"tallnewobj" : 0,
		"boxanimatetime" : 200,
		"enablehscroll" : 1,
		"enablevscroll" : 1,
		"devicewidth" : 0.0,
		"description" : "",
		"digest" : "",
		"tags" : "",
		"style" : "",
		"subpatcher_template" : "",
		"boxes" : [ 			{
				"box" : 				{
					"attr" : "end",
					"id" : "obj-24",
					"maxclass" : "attrui",
					"numinlets" : 1,
					"numoutlets" : 1,
					"outlettype" : [ "" ],
					"patching_rect" : [ 160.0, 183.0, 111.0, 22.0 ],
					"presentation_rect" : [ 146.0, 135.0, 0.0, 0.0 ],
					"style" : "",
					"text_width" : 54.0
				}

			}
, 			{
				"box" : 				{
					"attr" : "end",
					"id" : "obj-22",
					"maxclass" : "attrui",
					"numinlets" : 1,
					"numoutlets" : 1,
					"outlettype" : [ "" ],
					"patching_rect" : [ 306.0, 183.0, 111.0, 22.0 ],
					"presentation_rect" : [ 175.0, 207.0, 0.0, 0.0 ],
					"style" : "",
					"text_width" : 54.0
				}

			}
, 			{
				"box" : 				{
					"attr" : "start",
					"id" : "obj-21",
					"maxclass" : "attrui",
					"numinlets" : 1,
					"numoutlets" : 1,
					"outlettype" : [ "" ],
					"patching_rect" : [ 306.0, 157.0, 111.0, 22.0 ],
					"presentation_rect" : [ 121.0, 103.0, 0.0, 0.0 ],
					"style" : "",
					"text_width" : 54.0
				}

			}
, 			{
				"box" : 				{
					"attr" : "start",
					"id" : "obj-20",
					"maxclass" : "attrui",
					"numinlets" : 1,
					"numoutlets" : 1,
					"outlettype" : [ "" ],
					"patching_rect" : [ 160.0, 157.0, 111.0, 22.0 ],
					"presentation_rect" : [ 66.0, 187.0, 0.0, 0.0 ],
					"style" : "",
					"text_width" : 54.0
				}

			}
, 			{
				"box" : 				{
					"attr" : "amp",
					"id" : "obj-19",
					"maxclass" : "attrui",
					"numinlets" : 1,
					"numoutlets" : 1,
					"outlettype" : [ "" ],
					"patching_rect" : [ 457.0, 157.0, 89.0, 22.0 ],
					"presentation_rect" : [ 247.0, 224.0, 0.0, 0.0 ],
					"style" : "",
					"text_width" : 54.0
				}

			}
, 			{
				"box" : 				{
					"attr" : "amp",
					"id" : "obj-18",
					"maxclass" : "attrui",
					"numinlets" : 1,
					"numoutlets" : 1,
					"outlettype" : [ "" ],
					"patching_rect" : [ 306.0, 210.0, 89.0, 22.0 ],
					"presentation_rect" : [ 143.0, 219.0, 0.0, 0.0 ],
					"style" : "",
					"text_width" : 54.0
				}

			}
, 			{
				"box" : 				{
					"attr" : "amp",
					"id" : "obj-11",
					"maxclass" : "attrui",
					"numinlets" : 1,
					"numoutlets" : 1,
					"outlettype" : [ "" ],
					"patching_rect" : [ 160.0, 207.0, 111.0, 22.0 ],
					"style" : "",
					"text_width" : 54.0
				}

			}
, 			{
				"box" : 				{
					"id" : "obj-8",
					"maxclass" : "newobj",
					"numinlets" : 1,
					"numoutlets" : 2,
					"outlettype" : [ "jit_matrix", "" ],
					"patching_rect" : [ 457.0, 183.0, 61.0, 22.0 ],
					"presentation_rect" : [ 195.0, 267.0, 0.0, 0.0 ],
					"style" : "",
					"text" : "jit.mo.line"
				}

			}
, 			{
				"box" : 				{
					"id" : "obj-6",
					"maxclass" : "newobj",
					"numinlets" : 1,
					"numoutlets" : 2,
					"outlettype" : [ "jit_matrix", "" ],
					"patching_rect" : [ 247.5, 272.0, 61.0, 22.0 ],
					"presentation_rect" : [ 119.0, 268.0, 0.0, 0.0 ],
					"style" : "",
					"text" : "jit.mo.line"
				}

			}
, 			{
				"box" : 				{
					"id" : "obj-4",
					"maxclass" : "newobj",
					"numinlets" : 1,
					"numoutlets" : 2,
					"outlettype" : [ "jit_matrix", "" ],
					"patching_rect" : [ 160.0, 272.0, 61.0, 22.0 ],
					"style" : "",
					"text" : "jit.mo.line"
				}

			}
, 			{
				"box" : 				{
					"id" : "obj-2",
					"maxclass" : "newobj",
					"numinlets" : 3,
					"numoutlets" : 2,
					"outlettype" : [ "jit_matrix", "" ],
					"patching_rect" : [ 160.0, 299.0, 194.0, 22.0 ],
					"style" : "",
					"text" : "jit.mo.join 3 float32 10 @drawto lin"
				}

			}
, 			{
				"box" : 				{
					"id" : "obj-16",
					"maxclass" : "newobj",
					"numinlets" : 9,
					"numoutlets" : 2,
					"outlettype" : [ "jit_matrix", "" ],
					"patching_rect" : [ 160.0, 341.0, 327.0, 22.0 ],
					"style" : "",
					"text" : "jit.gl.mesh @draw_mode points @point_size 5 @antialias 1"
				}

			}
, 			{
				"box" : 				{
					"id" : "obj-3",
					"maxclass" : "toggle",
					"numinlets" : 1,
					"numoutlets" : 1,
					"outlettype" : [ "int" ],
					"parameter_enable" : 0,
					"patching_rect" : [ 27.0, 19.0, 24.0, 24.0 ],
					"style" : ""
				}

			}
, 			{
				"box" : 				{
					"id" : "obj-1",
					"maxclass" : "newobj",
					"numinlets" : 1,
					"numoutlets" : 3,
					"outlettype" : [ "", "bang", "" ],
					"patching_rect" : [ 27.0, 102.0, 67.0, 22.0 ],
					"style" : "",
					"text" : "jit.world lin"
				}

			}
 ],
		"lines" : [ 			{
				"patchline" : 				{
					"destination" : [ "obj-4", 0 ],
					"disabled" : 0,
					"hidden" : 0,
					"source" : [ "obj-11", 0 ]
				}

			}
, 			{
				"patchline" : 				{
					"destination" : [ "obj-6", 0 ],
					"disabled" : 0,
					"hidden" : 0,
					"source" : [ "obj-18", 0 ]
				}

			}
, 			{
				"patchline" : 				{
					"destination" : [ "obj-8", 0 ],
					"disabled" : 0,
					"hidden" : 0,
					"source" : [ "obj-19", 0 ]
				}

			}
, 			{
				"patchline" : 				{
					"destination" : [ "obj-16", 0 ],
					"disabled" : 0,
					"hidden" : 0,
					"source" : [ "obj-2", 0 ]
				}

			}
, 			{
				"patchline" : 				{
					"destination" : [ "obj-4", 0 ],
					"disabled" : 0,
					"hidden" : 0,
					"source" : [ "obj-20", 0 ]
				}

			}
, 			{
				"patchline" : 				{
					"destination" : [ "obj-6", 0 ],
					"disabled" : 0,
					"hidden" : 0,
					"source" : [ "obj-21", 0 ]
				}

			}
, 			{
				"patchline" : 				{
					"destination" : [ "obj-6", 0 ],
					"disabled" : 0,
					"hidden" : 0,
					"source" : [ "obj-22", 0 ]
				}

			}
, 			{
				"patchline" : 				{
					"destination" : [ "obj-4", 0 ],
					"disabled" : 0,
					"hidden" : 0,
					"source" : [ "obj-24", 0 ]
				}

			}
, 			{
				"patchline" : 				{
					"destination" : [ "obj-1", 0 ],
					"disabled" : 0,
					"hidden" : 0,
					"source" : [ "obj-3", 0 ]
				}

			}
, 			{
				"patchline" : 				{
					"destination" : [ "obj-2", 0 ],
					"disabled" : 0,
					"hidden" : 0,
					"source" : [ "obj-4", 0 ]
				}

			}
, 			{
				"patchline" : 				{
					"destination" : [ "obj-2", 1 ],
					"disabled" : 0,
					"hidden" : 0,
					"source" : [ "obj-6", 0 ]
				}

			}
, 			{
				"patchline" : 				{
					"destination" : [ "obj-2", 2 ],
					"disabled" : 0,
					"hidden" : 0,
					"source" : [ "obj-8", 0 ]
				}

			}
 ],
		"dependency_cache" : [ 			{
				"name" : "jit.mo.join.mxo",
				"type" : "iLaX"
			}
, 			{
				"name" : "jit.mo.gen.mxo",
				"type" : "iLaX"
			}
 ],
		"autosave" : 0
	}

}
