{
	"patcher" : 	{
		"fileversion" : 1,
		"appversion" : 		{
			"major" : 7,
			"minor" : 2,
			"revision" : 4,
			"architecture" : "x64",
			"modernui" : 1
		}
,
		"rect" : [ 50.0, 79.0, 945.0, 371.0 ],
		"bglocked" : 0,
		"openinpresentation" : 1,
		"default_fontsize" : 12.0,
		"default_fontface" : 0,
		"default_fontname" : "Arial",
		"gridonopen" : 1,
		"gridsize" : [ 15.0, 15.0 ],
		"gridsnaponopen" : 1,
		"objectsnaponopen" : 1,
		"statusbarvisible" : 2,
		"toolbarvisible" : 1,
		"lefttoolbarpinned" : 0,
		"toptoolbarpinned" : 0,
		"righttoolbarpinned" : 0,
		"bottomtoolbarpinned" : 0,
		"toolbars_unpinned_last_save" : 0,
		"tallnewobj" : 0,
		"boxanimatetime" : 200,
		"enablehscroll" : 1,
		"enablevscroll" : 1,
		"devicewidth" : 0.0,
		"description" : "",
		"digest" : "",
		"tags" : "",
		"style" : "",
		"subpatcher_template" : "",
		"boxes" : [ 			{
				"box" : 				{
					"id" : "obj-25",
					"maxclass" : "jit.pwindow",
					"numinlets" : 1,
					"numoutlets" : 2,
					"outlettype" : [ "", "" ],
					"patching_rect" : [ 416.0, 162.0, 80.0, 60.0 ],
					"presentation" : 1,
					"presentation_rect" : [ 23.0, 186.0, 256.0, 107.0 ]
				}

			}
, 			{
				"box" : 				{
					"id" : "obj-24",
					"maxclass" : "newobj",
					"numinlets" : 1,
					"numoutlets" : 1,
					"outlettype" : [ "bang" ],
					"patching_rect" : [ 14.0, 14.0, 70.0, 22.0 ],
					"style" : "",
					"text" : "loadbang 1"
				}

			}
, 			{
				"box" : 				{
					"id" : "obj-23",
					"linecount" : 6,
					"maxclass" : "comment",
					"numinlets" : 1,
					"numoutlets" : 0,
					"patching_rect" : [ 23.0, 116.0, 154.0, 87.0 ],
					"presentation" : 1,
					"presentation_linecount" : 4,
					"presentation_rect" : [ 23.0, 101.0, 256.0, 60.0 ],
					"style" : "",
					"text" : "A set of tools for generating realtime motion graphics in Jitter. Explore the examples and help files and start creating your own generative animations."
				}

			}
, 			{
				"box" : 				{
					"fontface" : 1,
					"fontsize" : 30.0,
					"id" : "obj-21",
					"maxclass" : "comment",
					"numinlets" : 1,
					"numoutlets" : 0,
					"patching_rect" : [ 23.0, 218.0, 107.0, 40.0 ],
					"presentation" : 1,
					"presentation_rect" : [ 23.0, 41.0, 111.0, 40.0 ],
					"style" : "",
					"text" : "JIT.MO"
				}

			}
, 			{
				"box" : 				{
					"fontsize" : 16.0,
					"id" : "obj-19",
					"maxclass" : "comment",
					"numinlets" : 1,
					"numoutlets" : 0,
					"patching_rect" : [ 674.5, 226.0, 308.0, 24.0 ],
					"presentation" : 1,
					"presentation_rect" : [ 762.0, 51.0, 163.0, 24.0 ],
					"style" : "",
					"text" : "ABSTRACTIONS:"
				}

			}
, 			{
				"box" : 				{
					"fontsize" : 16.0,
					"id" : "obj-18",
					"maxclass" : "comment",
					"numinlets" : 1,
					"numoutlets" : 0,
					"patching_rect" : [ 482.5, 226.0, 170.0, 24.0 ],
					"presentation" : 1,
					"presentation_rect" : [ 559.0, 51.0, 90.0, 24.0 ],
					"style" : "",
					"text" : "OBJECTS:"
				}

			}
, 			{
				"box" : 				{
					"fontsize" : 16.0,
					"id" : "obj-17",
					"maxclass" : "comment",
					"numinlets" : 1,
					"numoutlets" : 0,
					"patching_rect" : [ 196.0, 218.0, 194.0, 24.0 ],
					"presentation" : 1,
					"presentation_rect" : [ 338.0, 48.0, 103.0, 24.0 ],
					"style" : "",
					"text" : "EXAMPLES:"
				}

			}
, 			{
				"box" : 				{
					"id" : "obj-15",
					"maxclass" : "toggle",
					"numinlets" : 1,
					"numoutlets" : 1,
					"outlettype" : [ "int" ],
					"parameter_enable" : 0,
					"patching_rect" : [ 14.0, 50.0, 24.0, 24.0 ],
					"presentation" : 1,
					"presentation_rect" : [ 147.0, 41.0, 44.0, 44.0 ],
					"style" : ""
				}

			}
, 			{
				"box" : 				{
					"id" : "obj-13",
					"maxclass" : "newobj",
					"numinlets" : 8,
					"numoutlets" : 2,
					"outlettype" : [ "", "" ],
					"patching_rect" : [ 176.0, 35.0, 92.5, 22.0 ],
					"style" : "",
					"text" : "jit.gl.material"
				}

			}
, 			{
				"box" : 				{
					"id" : "obj-10",
					"maxclass" : "newobj",
					"numinlets" : 3,
					"numoutlets" : 2,
					"outlettype" : [ "jit_matrix", "" ],
					"patching_rect" : [ 514.0, 104.0, 95.0, 22.0 ],
					"style" : "",
					"text" : "jit.mo.join 3 100"
				}

			}
, 			{
				"box" : 				{
					"id" : "obj-11",
					"maxclass" : "newobj",
					"numinlets" : 1,
					"numoutlets" : 2,
					"outlettype" : [ "jit_matrix", "" ],
					"patching_rect" : [ 514.0, 35.0, 274.0, 22.0 ],
					"style" : "",
					"text" : "jit.mo.perlin @speed 0.5 @offset 0.11 @scale 0.1"
				}

			}
, 			{
				"box" : 				{
					"id" : "obj-9",
					"maxclass" : "newobj",
					"numinlets" : 1,
					"numoutlets" : 2,
					"outlettype" : [ "jit_matrix", "" ],
					"patching_rect" : [ 273.0, 167.0, 88.0, 22.0 ],
					"style" : "",
					"text" : "jit.gl.gridshape"
				}

			}
, 			{
				"box" : 				{
					"id" : "obj-8",
					"maxclass" : "newobj",
					"numinlets" : 2,
					"numoutlets" : 2,
					"outlettype" : [ "", "" ],
					"patching_rect" : [ 273.0, 134.0, 227.0, 22.0 ],
					"style" : "",
					"text" : "jit.gl.multiple 2 @glparams position scale"
				}

			}
, 			{
				"box" : 				{
					"id" : "obj-7",
					"maxclass" : "newobj",
					"numinlets" : 1,
					"numoutlets" : 2,
					"outlettype" : [ "jit_matrix", "" ],
					"patching_rect" : [ 341.0, 35.0, 239.0, 22.0 ],
					"style" : "",
					"text" : "jit.mo.sin @freq 1.5 @speed 1. @scale 0.5"
				}

			}
, 			{
				"box" : 				{
					"id" : "obj-6",
					"maxclass" : "newobj",
					"numinlets" : 3,
					"numoutlets" : 2,
					"outlettype" : [ "jit_matrix", "" ],
					"patching_rect" : [ 273.0, 104.0, 95.0, 22.0 ],
					"style" : "",
					"text" : "jit.mo.join 3 100"
				}

			}
, 			{
				"box" : 				{
					"id" : "obj-5",
					"maxclass" : "newobj",
					"numinlets" : 1,
					"numoutlets" : 2,
					"outlettype" : [ "jit_matrix", "" ],
					"patching_rect" : [ 273.0, 35.0, 61.0, 22.0 ],
					"style" : "",
					"text" : "jit.mo.line"
				}

			}
, 			{
				"box" : 				{
					"id" : "obj-4",
					"maxclass" : "newobj",
					"numinlets" : 1,
					"numoutlets" : 3,
					"outlettype" : [ "", "bang", "" ],
					"patching_rect" : [ 14.0, 80.0, 172.0, 22.0 ],
					"style" : "",
					"text" : "jit.world mo-launch @enable 1"
				}

			}
, 			{
				"box" : 				{
					"bgcolor" : [ 0.962713, 0.938393, 0.952793, 0.0 ],
					"button" : 1,
					"fontface" : 1,
					"fontname" : "Lato Regular",
					"fontsize" : 16.0,
					"htabcolor" : [ 0.952941, 0.564706, 0.098039, 1.0 ],
					"id" : "obj-2",
					"margin" : 5,
					"maxclass" : "tab",
					"numinlets" : 1,
					"numoutlets" : 3,
					"outlettype" : [ "int", "", "" ],
					"parameter_enable" : 0,
					"patching_rect" : [ 669.0, 242.0, 161.0, 213.0 ],
					"presentation" : 1,
					"presentation_rect" : [ 762.0, 77.0, 122.0, 223.0 ],
					"rounded" : 9.0,
					"spacing_x" : 12.0,
					"spacing_y" : 14.0,
					"style" : "",
					"tabcolor" : [ 0.664532, 0.706344, 0.714923, 1.0 ],
					"tabs" : [ "jit.mo.grid", "jit.mo.slice", "jit.mo.texture" ],
					"textcolor" : [ 0.29971, 0.332965, 0.409308, 1.0 ]
				}

			}
, 			{
				"box" : 				{
					"bgcolor" : [ 0.962713, 0.938393, 0.952793, 0.0 ],
					"button" : 1,
					"fontface" : 1,
					"fontname" : "Lato Regular",
					"fontsize" : 16.0,
					"htabcolor" : [ 0.952941, 0.564706, 0.098039, 1.0 ],
					"id" : "obj-41",
					"margin" : 5,
					"maxclass" : "tab",
					"numinlets" : 1,
					"numoutlets" : 3,
					"outlettype" : [ "int", "", "" ],
					"parameter_enable" : 0,
					"patching_rect" : [ 192.0, 242.0, 143.0, 220.0 ],
					"presentation" : 1,
					"presentation_rect" : [ 338.0, 77.0, 161.0, 223.0 ],
					"rounded" : 9.0,
					"spacing_x" : 12.0,
					"spacing_y" : 14.0,
					"style" : "",
					"tabcolor" : [ 0.664532, 0.706344, 0.714923, 1.0 ],
					"tabs" : [ "AudioVisuals", "OrganicMotion", "Worms", "Alphablend", "circle" ],
					"textcolor" : [ 0.29971, 0.332965, 0.409308, 1.0 ]
				}

			}
, 			{
				"box" : 				{
					"bgcolor" : [ 0.962713, 0.938393, 0.952793, 0.0 ],
					"button" : 1,
					"fontface" : 1,
					"fontname" : "Lato Regular",
					"fontsize" : 16.0,
					"htabcolor" : [ 0.952941, 0.564706, 0.098039, 1.0 ],
					"id" : "obj-12",
					"margin" : 5,
					"maxclass" : "tab",
					"numinlets" : 1,
					"numoutlets" : 3,
					"outlettype" : [ "int", "", "" ],
					"parameter_enable" : 0,
					"patching_rect" : [ 496.0, 242.0, 161.0, 213.0 ],
					"presentation" : 1,
					"presentation_rect" : [ 559.0, 77.0, 145.0, 223.0 ],
					"rounded" : 9.0,
					"spacing_x" : 12.0,
					"spacing_y" : 14.0,
					"style" : "",
					"tabcolor" : [ 0.664532, 0.706344, 0.714923, 1.0 ],
					"tabs" : [ "jit.mo.field", "jit.mo.func", "jit.mo.join", "jit.mo.time" ],
					"textcolor" : [ 0.29971, 0.332965, 0.409308, 1.0 ]
				}

			}
, 			{
				"box" : 				{
					"fontname" : "Arial",
					"fontsize" : 9.0,
					"id" : "obj-1",
					"maxclass" : "newobj",
					"numinlets" : 1,
					"numoutlets" : 1,
					"outlettype" : [ "" ],
					"patching_rect" : [ 567.0, 500.0, 47.0, 19.0 ],
					"style" : "",
					"text" : "pcontrol"
				}

			}
, 			{
				"box" : 				{
					"fontname" : "Arial",
					"fontsize" : 9.0,
					"id" : "obj-3",
					"maxclass" : "newobj",
					"numinlets" : 1,
					"numoutlets" : 1,
					"outlettype" : [ "" ],
					"patching_rect" : [ 567.0, 474.0, 66.0, 19.0 ],
					"style" : "",
					"text" : "prepend help"
				}

			}
, 			{
				"box" : 				{
					"id" : "obj-26",
					"maxclass" : "newobj",
					"numinlets" : 3,
					"numoutlets" : 2,
					"outlettype" : [ "", "" ],
					"patching_rect" : [ 157.0, 487.5, 213.0, 22.0 ],
					"style" : "",
					"text" : "combine jit.mo- s .maxpat @triggers 1"
				}

			}
, 			{
				"box" : 				{
					"id" : "obj-27",
					"maxclass" : "message",
					"numinlets" : 2,
					"numoutlets" : 1,
					"outlettype" : [ "" ],
					"patching_rect" : [ 157.0, 548.5, 50.0, 22.0 ],
					"style" : "",
					"text" : "load $1"
				}

			}
, 			{
				"box" : 				{
					"id" : "obj-28",
					"maxclass" : "newobj",
					"numinlets" : 1,
					"numoutlets" : 1,
					"outlettype" : [ "" ],
					"patching_rect" : [ 157.0, 590.989746, 53.0, 22.0 ],
					"style" : "",
					"text" : "pcontrol"
				}

			}
 ],
		"lines" : [ 			{
				"patchline" : 				{
					"destination" : [ "obj-8", 1 ],
					"disabled" : 0,
					"hidden" : 0,
					"source" : [ "obj-10", 0 ]
				}

			}
, 			{
				"patchline" : 				{
					"destination" : [ "obj-10", 2 ],
					"disabled" : 0,
					"hidden" : 0,
					"source" : [ "obj-11", 0 ]
				}

			}
, 			{
				"patchline" : 				{
					"destination" : [ "obj-10", 1 ],
					"disabled" : 0,
					"hidden" : 0,
					"source" : [ "obj-11", 0 ]
				}

			}
, 			{
				"patchline" : 				{
					"destination" : [ "obj-10", 0 ],
					"disabled" : 0,
					"hidden" : 0,
					"source" : [ "obj-11", 0 ]
				}

			}
, 			{
				"patchline" : 				{
					"destination" : [ "obj-3", 0 ],
					"disabled" : 0,
					"hidden" : 0,
					"source" : [ "obj-12", 1 ]
				}

			}
, 			{
				"patchline" : 				{
					"destination" : [ "obj-9", 0 ],
					"disabled" : 0,
					"hidden" : 0,
					"source" : [ "obj-13", 0 ]
				}

			}
, 			{
				"patchline" : 				{
					"destination" : [ "obj-4", 0 ],
					"disabled" : 0,
					"hidden" : 0,
					"source" : [ "obj-15", 0 ]
				}

			}
, 			{
				"patchline" : 				{
					"destination" : [ "obj-3", 0 ],
					"disabled" : 0,
					"hidden" : 0,
					"source" : [ "obj-2", 1 ]
				}

			}
, 			{
				"patchline" : 				{
					"destination" : [ "obj-15", 0 ],
					"disabled" : 0,
					"hidden" : 0,
					"source" : [ "obj-24", 0 ]
				}

			}
, 			{
				"patchline" : 				{
					"destination" : [ "obj-27", 0 ],
					"disabled" : 0,
					"hidden" : 0,
					"source" : [ "obj-26", 0 ]
				}

			}
, 			{
				"patchline" : 				{
					"destination" : [ "obj-28", 0 ],
					"disabled" : 0,
					"hidden" : 0,
					"source" : [ "obj-27", 0 ]
				}

			}
, 			{
				"patchline" : 				{
					"destination" : [ "obj-1", 0 ],
					"disabled" : 0,
					"hidden" : 0,
					"source" : [ "obj-3", 0 ]
				}

			}
, 			{
				"patchline" : 				{
					"destination" : [ "obj-26", 1 ],
					"disabled" : 0,
					"hidden" : 0,
					"source" : [ "obj-41", 1 ]
				}

			}
, 			{
				"patchline" : 				{
					"destination" : [ "obj-6", 0 ],
					"disabled" : 0,
					"hidden" : 0,
					"source" : [ "obj-5", 0 ]
				}

			}
, 			{
				"patchline" : 				{
					"destination" : [ "obj-25", 0 ],
					"disabled" : 0,
					"hidden" : 0,
					"source" : [ "obj-6", 0 ]
				}

			}
, 			{
				"patchline" : 				{
					"destination" : [ "obj-8", 0 ],
					"disabled" : 0,
					"hidden" : 0,
					"source" : [ "obj-6", 0 ]
				}

			}
, 			{
				"patchline" : 				{
					"destination" : [ "obj-6", 1 ],
					"disabled" : 0,
					"hidden" : 0,
					"source" : [ "obj-7", 0 ]
				}

			}
, 			{
				"patchline" : 				{
					"destination" : [ "obj-9", 0 ],
					"disabled" : 0,
					"hidden" : 0,
					"source" : [ "obj-8", 0 ]
				}

			}
 ],
		"dependency_cache" : [ 			{
				"name" : "jit.mo.func.mxo",
				"type" : "iLaX"
			}
, 			{
				"name" : "jit.mo.join.mxo",
				"type" : "iLaX"
			}
 ],
		"autosave" : 0
	}

}
